<svg xmlns="http://www.w3.org/2000/svg" xmlns:xlink="http://www.w3.org/1999/xlink" width="325" zoomAndPan="magnify" viewBox="0 0 243.75 52.499999" height="70" preserveAspectRatio="xMidYMid meet" version="1.0"><defs><g/><clipPath id="698b60e8a9"><path d="M 17 26 L 37 26 L 37 52.003906 L 17 52.003906 Z M 17 26 " clip-rule="nonzero"/></clipPath><clipPath id="ceea3ed286"><path d="M 1.28125 16 L 28 16 L 28 36 L 1.28125 36 Z M 1.28125 16 " clip-rule="nonzero"/></clipPath><clipPath id="1989ad6eb1"><path d="M 27 16 L 53.339844 16 L 53.339844 36 L 27 36 Z M 27 16 " clip-rule="nonzero"/></clipPath></defs><g clip-path="url(#698b60e8a9)"><path fill="#545454" d="M 32.980469 52.03125 L 21.628906 52.03125 C 19.4375 52.03125 17.644531 50.238281 17.644531 48.046875 L 17.644531 42.535156 L 20.300781 42.535156 L 20.300781 48.046875 C 20.300781 48.777344 20.898438 49.375 21.628906 49.375 L 32.980469 49.375 C 33.710938 49.375 34.308594 48.777344 34.308594 48.046875 L 34.308594 26.027344 L 36.964844 26.027344 L 36.964844 48.046875 C 36.964844 50.238281 35.1875 52.03125 32.980469 52.03125 Z M 32.980469 52.03125 " fill-opacity="1" fill-rule="nonzero"/></g><path fill="#ffffff" d="M 20.300781 26.027344 L 17.644531 26.027344 L 17.644531 4.011719 C 17.644531 1.820312 19.4375 0.0273438 21.628906 0.0273438 L 32.980469 0.0273438 C 35.171875 0.0273438 36.964844 1.820312 36.964844 4.011719 L 36.964844 9.523438 L 34.308594 9.523438 L 34.308594 4.011719 C 34.308594 3.28125 33.710938 2.683594 32.980469 2.683594 L 21.628906 2.683594 C 20.898438 2.683594 20.300781 3.28125 20.300781 4.011719 Z M 20.300781 26.027344 " fill-opacity="1" fill-rule="nonzero"/><g clip-path="url(#ceea3ed286)"><path fill="#ffffff" d="M 27.3125 35.695312 L 5.292969 35.695312 C 3.101562 35.695312 1.308594 33.902344 1.308594 31.714844 L 1.308594 20.359375 C 1.308594 18.167969 3.101562 16.375 5.292969 16.375 L 10.804688 16.375 L 10.804688 19.03125 L 5.292969 19.03125 C 4.5625 19.03125 3.964844 19.628906 3.964844 20.359375 L 3.964844 31.714844 C 3.964844 32.441406 4.5625 33.039062 5.292969 33.039062 L 27.3125 33.039062 Z M 27.3125 35.695312 " fill-opacity="1" fill-rule="nonzero"/></g><g clip-path="url(#1989ad6eb1)"><path fill="#545454" d="M 49.328125 35.695312 L 43.820312 35.695312 L 43.820312 33.039062 L 49.328125 33.039062 C 50.058594 33.039062 50.65625 32.441406 50.65625 31.714844 L 50.65625 20.359375 C 50.65625 19.628906 50.058594 19.03125 49.328125 19.03125 L 27.3125 19.03125 L 27.3125 16.375 L 49.328125 16.375 C 51.519531 16.375 53.3125 18.167969 53.3125 20.359375 L 53.3125 31.714844 C 53.3125 33.902344 51.519531 35.695312 49.328125 35.695312 Z M 49.328125 35.695312 " fill-opacity="1" fill-rule="nonzero"/></g><g fill="#ffffff" fill-opacity="1"><g transform="translate(58.798458, 31.790041)"><g><path d="M 16.890625 0 L 14.671875 0 L 14.65625 -10.609375 L 10.171875 -1.484375 L 8.609375 -1.484375 L 4.125 -10.609375 L 4.125 0 L 1.875 0 L 1.875 -14.203125 L 4.703125 -14.203125 L 9.390625 -4.765625 L 14.0625 -14.203125 L 16.890625 -14.203125 Z M 16.890625 0 "/></g></g></g><g fill="#ffffff" fill-opacity="1"><g transform="translate(80.617816, 31.790041)"><g><path d="M 12.015625 -12.0625 L 4.265625 -12.0625 L 4.265625 -8.21875 L 11.203125 -8.21875 L 11.203125 -6.0625 L 4.265625 -6.0625 L 4.265625 -2.15625 L 12.265625 -2.15625 L 12.265625 0 L 1.875 0 L 1.875 -14.203125 L 12.015625 -14.203125 Z M 12.015625 -12.0625 "/></g></g></g><g fill="#ffffff" fill-opacity="1"><g transform="translate(96.977565, 31.790041)"><g><path d="M 1.875 -14.203125 L 7.6875 -14.203125 C 9.8125 -14.203125 11.566406 -13.53125 12.953125 -12.1875 C 14.347656 -10.851562 15.046875 -9.15625 15.046875 -7.09375 C 15.046875 -5.039062 14.347656 -3.34375 12.953125 -2 C 11.554688 -0.664062 9.78125 0 7.625 0 L 1.875 0 Z M 4.265625 -12.0625 L 4.265625 -2.15625 L 7.75 -2.15625 C 9.144531 -2.15625 10.304688 -2.617188 11.234375 -3.546875 C 12.160156 -4.472656 12.625 -5.648438 12.625 -7.078125 C 12.625 -8.515625 12.144531 -9.703125 11.1875 -10.640625 C 10.238281 -11.585938 9.0625 -12.0625 7.65625 -12.0625 Z M 4.265625 -12.0625 "/></g></g></g><g fill="#ffffff" fill-opacity="1"><g transform="translate(115.752529, 31.790041)"><g><path d="M 4.265625 0 L 1.875 0 L 1.875 -14.203125 L 4.265625 -14.203125 Z M 4.265625 0 "/></g></g></g><g fill="#ffffff" fill-opacity="1"><g transform="translate(124.927521, 31.790041)"><g><path d="M 8.15625 -14.265625 C 9.15625 -14.265625 10.128906 -14.070312 11.078125 -13.6875 C 12.035156 -13.300781 12.863281 -12.765625 13.5625 -12.078125 L 12.15625 -10.328125 C 11.644531 -10.878906 11.035156 -11.316406 10.328125 -11.640625 C 9.628906 -11.972656 8.921875 -12.140625 8.203125 -12.140625 C 6.773438 -12.140625 5.570312 -11.65625 4.59375 -10.6875 C 3.613281 -9.71875 3.125 -8.535156 3.125 -7.140625 C 3.125 -5.734375 3.613281 -4.546875 4.59375 -3.578125 C 5.570312 -2.609375 6.773438 -2.125 8.203125 -2.125 C 9.671875 -2.125 10.988281 -2.6875 12.15625 -3.8125 L 13.578125 -2.234375 C 12.847656 -1.515625 11.992188 -0.945312 11.015625 -0.53125 C 10.046875 -0.113281 9.066406 0.09375 8.078125 0.09375 C 5.992188 0.09375 4.238281 -0.597656 2.8125 -1.984375 C 1.394531 -3.367188 0.6875 -5.082031 0.6875 -7.125 C 0.6875 -9.132812 1.40625 -10.828125 2.84375 -12.203125 C 4.289062 -13.578125 6.0625 -14.265625 8.15625 -14.265625 Z M 8.15625 -14.265625 "/></g></g></g><g fill="#ffffff" fill-opacity="1"><g transform="translate(142.119411, 31.790041)"><g><path d="M 11.046875 -3.203125 L 3.875 -3.203125 L 2.515625 0 L 0.015625 0 L 6.296875 -14.203125 L 8.75 -14.203125 L 14.953125 0 L 12.40625 0 Z M 10.125 -5.34375 L 7.453125 -11.65625 L 4.765625 -5.34375 Z M 10.125 -5.34375 "/></g></g></g><g fill="#ffffff" fill-opacity="1"><g transform="translate(160.14343, 31.790041)"><g><path d="M 4.265625 -2.171875 L 10.40625 -2.171875 L 10.40625 0 L 1.875 0 L 1.875 -14.203125 L 4.265625 -14.203125 Z M 4.265625 -2.171875 "/></g></g></g><g fill="#ffffff" fill-opacity="1"><g transform="translate(174.027085, 31.790041)"><g><path d="M 4.265625 0 L 1.875 0 L 1.875 -14.203125 L 4.265625 -14.203125 Z M 4.265625 0 "/></g></g></g><g fill="#ffffff" fill-opacity="1"><g transform="translate(183.202081, 31.790041)"><g><path d="M 11.390625 -12.0625 L 4.265625 -12.0625 L 4.265625 -7.953125 L 10.71875 -7.953125 L 10.71875 -5.828125 L 4.265625 -5.828125 L 4.265625 0 L 1.875 0 L 1.875 -14.203125 L 11.40625 -14.203125 Z M 11.390625 -12.0625 "/></g></g></g><g fill="#ffffff" fill-opacity="1"><g transform="translate(197.917865, 31.790041)"><g><path d="M 12.015625 -12.0625 L 4.265625 -12.0625 L 4.265625 -8.21875 L 11.203125 -8.21875 L 11.203125 -6.0625 L 4.265625 -6.0625 L 4.265625 -2.15625 L 12.265625 -2.15625 L 12.265625 0 L 1.875 0 L 1.875 -14.203125 L 12.015625 -14.203125 Z M 12.015625 -12.0625 "/></g></g></g><g fill="#545454" fill-opacity="1"><g transform="translate(93.919799, 46.168975)"><g><path d="M 5.015625 0 L 4.171875 0 L 4.171875 -2.078125 L 1.5 -2.078125 L 1.5 0 L 0.65625 0 L 0.65625 -5.015625 L 1.5 -5.015625 L 1.5 -2.84375 L 4.171875 -2.84375 L 4.171875 -5.015625 L 5.015625 -5.015625 Z M 5.015625 0 "/></g></g></g><g fill="#545454" fill-opacity="1"><g transform="translate(101.392374, 46.168975)"><g><path d="M 4.25 -4.265625 L 1.5 -4.265625 L 1.5 -2.90625 L 3.953125 -2.90625 L 3.953125 -2.140625 L 1.5 -2.140625 L 1.5 -0.765625 L 4.328125 -0.765625 L 4.328125 0 L 0.65625 0 L 0.65625 -5.015625 L 4.25 -5.015625 Z M 4.25 -4.265625 "/></g></g></g><g fill="#545454" fill-opacity="1"><g transform="translate(107.895977, 46.168975)"><g><path d="M 3.90625 -1.140625 L 1.375 -1.140625 L 0.890625 0 L 0 0 L 2.21875 -5.015625 L 3.09375 -5.015625 L 5.28125 0 L 4.375 0 Z M 3.578125 -1.890625 L 2.625 -4.109375 L 1.6875 -1.890625 Z M 3.578125 -1.890625 "/></g></g></g><g fill="#545454" fill-opacity="1"><g transform="translate(114.988139, 46.168975)"><g><path d="M 1.5 -0.765625 L 3.671875 -0.765625 L 3.671875 0 L 0.65625 0 L 0.65625 -5.015625 L 1.5 -5.015625 Z M 1.5 -0.765625 "/></g></g></g><g fill="#545454" fill-opacity="1"><g transform="translate(120.616069, 46.168975)"><g><path d="M 4.09375 -4.265625 L 2.5 -4.265625 L 2.5 0 L 1.65625 0 L 1.65625 -4.265625 L 0.0625 -4.265625 L 0.0625 -5.015625 L 4.09375 -5.015625 Z M 4.09375 -4.265625 "/></g></g></g><g fill="#545454" fill-opacity="1"><g transform="translate(126.56699, 46.168975)"><g><path d="M 5.015625 0 L 4.171875 0 L 4.171875 -2.078125 L 1.5 -2.078125 L 1.5 0 L 0.65625 0 L 0.65625 -5.015625 L 1.5 -5.015625 L 1.5 -2.84375 L 4.171875 -2.84375 L 4.171875 -5.015625 L 5.015625 -5.015625 Z M 5.015625 0 "/></g></g></g><g fill="#545454" fill-opacity="1"><g transform="translate(134.039565, 46.168975)"><g/></g></g><g fill="#545454" fill-opacity="1"><g transform="translate(137.686486, 46.168975)"><g><path d="M 2.890625 -5.046875 C 3.234375 -5.046875 3.570312 -4.976562 3.90625 -4.84375 C 4.25 -4.707031 4.546875 -4.515625 4.796875 -4.265625 L 4.296875 -3.65625 C 4.109375 -3.84375 3.890625 -3.992188 3.640625 -4.109375 C 3.398438 -4.222656 3.148438 -4.28125 2.890625 -4.28125 C 2.390625 -4.28125 1.96875 -4.109375 1.625 -3.765625 C 1.28125 -3.429688 1.109375 -3.019531 1.109375 -2.53125 C 1.109375 -2.03125 1.28125 -1.609375 1.625 -1.265625 C 1.96875 -0.921875 2.390625 -0.75 2.890625 -0.75 C 3.410156 -0.75 3.878906 -0.945312 4.296875 -1.34375 L 4.796875 -0.78125 C 4.535156 -0.53125 4.234375 -0.332031 3.890625 -0.1875 C 3.546875 -0.0390625 3.203125 0.03125 2.859375 0.03125 C 2.117188 0.03125 1.5 -0.210938 1 -0.703125 C 0.5 -1.191406 0.25 -1.796875 0.25 -2.515625 C 0.25 -3.222656 0.5 -3.820312 1 -4.3125 C 1.507812 -4.800781 2.140625 -5.046875 2.890625 -5.046875 Z M 2.890625 -5.046875 "/></g></g></g><g fill="#545454" fill-opacity="1"><g transform="translate(144.484366, 46.168975)"><g><path d="M 4.25 -4.265625 L 1.5 -4.265625 L 1.5 -2.90625 L 3.953125 -2.90625 L 3.953125 -2.140625 L 1.5 -2.140625 L 1.5 -0.765625 L 4.328125 -0.765625 L 4.328125 0 L 0.65625 0 L 0.65625 -5.015625 L 4.25 -5.015625 Z M 4.25 -4.265625 "/></g></g></g><g fill="#545454" fill-opacity="1"><g transform="translate(150.987971, 46.168975)"><g><path d="M 5.015625 0 L 4.1875 0 L 1.5 -3.59375 L 1.5 0 L 0.65625 0 L 0.65625 -5.015625 L 1.484375 -5.015625 L 4.1875 -1.40625 L 4.1875 -5.015625 L 5.015625 -5.015625 Z M 5.015625 0 "/></g></g></g><g fill="#545454" fill-opacity="1"><g transform="translate(158.467722, 46.168975)"><g><path d="M 4.09375 -4.265625 L 2.5 -4.265625 L 2.5 0 L 1.65625 0 L 1.65625 -4.265625 L 0.0625 -4.265625 L 0.0625 -5.015625 L 4.09375 -5.015625 Z M 4.09375 -4.265625 "/></g></g></g><g fill="#545454" fill-opacity="1"><g transform="translate(164.418645, 46.168975)"><g><path d="M 4.25 -4.265625 L 1.5 -4.265625 L 1.5 -2.90625 L 3.953125 -2.90625 L 3.953125 -2.140625 L 1.5 -2.140625 L 1.5 -0.765625 L 4.328125 -0.765625 L 4.328125 0 L 0.65625 0 L 0.65625 -5.015625 L 4.25 -5.015625 Z M 4.25 -4.265625 "/></g></g></g><g fill="#545454" fill-opacity="1"><g transform="translate(170.92225, 46.168975)"><g><path d="M 3.84375 0 L 2.921875 -1.515625 C 2.878906 -1.515625 2.804688 -1.515625 2.703125 -1.515625 L 1.5 -1.515625 L 1.5 0 L 0.65625 0 L 0.65625 -5.015625 L 2.703125 -5.015625 C 3.335938 -5.015625 3.832031 -4.863281 4.1875 -4.5625 C 4.539062 -4.269531 4.71875 -3.851562 4.71875 -3.3125 C 4.71875 -2.90625 4.628906 -2.5625 4.453125 -2.28125 C 4.273438 -2.007812 4.015625 -1.804688 3.671875 -1.671875 L 4.8125 0 Z M 1.5 -2.28125 L 2.703125 -2.28125 C 3.515625 -2.28125 3.921875 -2.613281 3.921875 -3.28125 C 3.921875 -3.9375 3.515625 -4.265625 2.703125 -4.265625 L 1.5 -4.265625 Z M 1.5 -2.28125 "/></g></g></g></svg>